Coordinates
version=1
nRows=14
nColumns=24
inDegrees=yes

Units are S.I. units (second, meters, Newtons, ...)
Angles are in degrees.

endheader
time	pelvis_tilt	pelvis_list	pelvis_rotation	pelvis_tx	pelvis_ty	pelvis_tz	hip_flexion_r	hip_adduction_r	hip_rotation_r	knee_angle_r	ankle_angle_r	subtalar_angle_r	mtp_angle_r	hip_flexion_l	hip_adduction_l	hip_rotation_l	knee_angle_l	ankle_angle_l	subtalar_angle_l	mtp_angle_l	lumbar_extension	lumbar_bending	lumbar_rotation
      1.56000000	     24.34982121	     -4.98258790	      8.08833238	     -0.28091058	      0.91255497	     -0.02465751	     -2.71732508	      6.32678736	     -2.41424055	    -27.75204989	     12.27701109	    -13.89095955	     18.17612815	    -30.71653739	     -3.62229428	     33.41992181	     -4.26438987	     -0.55940401	    -45.10886168	     17.25839094	    -34.40928685	      8.54532499	     -2.22091232
      1.56500000	     24.33567753	     -5.04697715	      7.84915207	     -0.27521013	      0.91181468	     -0.02410195	     -2.78715578	      6.53450583	     -1.17607975	    -25.63061533	     11.74109938	    -14.94775500	     18.43662077	    -31.15512487	     -3.61304197	     32.83630241	     -4.23799402	      0.09732297	    -44.51171881	     17.39043231	    -34.40578600	      8.48353971	     -2.00253061
      1.57000000	     24.30597186	     -5.11034125	      7.58987860	     -0.26944840	      0.91101851	     -0.02351360	     -2.89789538	      6.72177820	      0.14573252	    -23.43251816	     11.12292354	    -16.05055583	     18.83210425	    -31.57830792	     -3.58682461	     32.19752395	     -4.22655447	      0.80612746	    -43.80179344	     17.53203509	    -34.38033359	      8.41031009	     -1.77293593
      1.57500000	     24.21317578	     -5.17659807	      7.25981464	     -0.26361641	      0.91010305	     -0.02281885	     -2.97216196	      6.87317434	      1.57168505	    -21.21080471	     10.38280269	    -17.10365286	     20.20533390	    -31.92005832	     -3.51308809	     31.39405369	     -4.28499476	      1.81813439	    -42.55936746	     17.66752483	    -34.28714108	      8.30067560	     -1.46079602
      1.58000000	     24.17171217	     -5.22416673	      7.00930865	     -0.25774638	      0.90920556	     -0.02227187	     -3.20548659	      6.99424777	      3.01015172	    -18.82497195	      9.66041921	    -18.38518556	     20.65481075	    -32.34382861	     -3.46331526	     30.79557591	     -4.26092022	      2.30260087	    -42.19297147	     17.67616784	    -34.23248590	      8.22397193	     -1.25469203
      1.58500000	     24.10208473	     -5.22954730	      6.68219206	     -0.25189130	      0.90822854	     -0.02159700	     -3.44117923	      7.03232616	      4.60321655	    -16.42272502	      8.78153114	    -19.66556118	     21.18090843	    -32.74639909	     -3.33635178	     30.15287368	     -4.24430475	      2.97505654	    -41.44541763	     17.77901704	    -34.16101095	      8.06370087	     -0.98731915
      1.59000000	     23.98413486	     -5.23111672	      6.33228230	     -0.24593070	      0.90713080	     -0.02092315	     -3.66782342	      7.01682831	      6.24032093	    -13.98893058	      7.84309760	    -20.93550877	     21.89209242	    -33.09583033	     -3.18096917	     29.43715080	     -4.25246218	      3.69738193	    -40.59027076	     17.88224373	    -34.02492899	      7.89362975	     -0.71847258
      1.59500000	     23.82760017	     -5.21518235	      5.95354741	     -0.23988288	      0.90592023	     -0.02022023	     -3.87207625	      6.92560732	      7.83104602	    -11.55636335	      6.67382494	    -22.30969189	     25.83616121	    -33.35958230	     -2.96842360	     28.53331722	     -4.40134519	      4.81372500	    -39.14877880	     17.59306732	    -33.83975135	      7.69288845	     -0.43477753
      1.60000000	     23.66406995	     -5.15335616	      5.60199916	     -0.23385479	      0.90464858	     -0.01960980	     -4.11721881	      6.75011689	      9.48857734	     -9.10774375	      5.60575919	    -23.60013424	     25.91791576	    -33.69824387	     -2.74656419	     28.03780667	     -4.32614724	      5.15439148	    -38.92729659	     17.55952174	    -33.64378120	      7.47190120	     -0.18873603
      1.60500000	     23.43968466	     -5.06355096	      5.18987759	     -0.22776723	      0.90324091	     -0.01891386	     -4.26576839	      6.49656424	     11.10844520	     -6.79591856	      4.56522080	    -24.70534044	     26.37748398	    -33.92561186	     -2.44265282	     27.32601691	     -4.39085901	      5.85765324	    -38.11846580	     17.65018255	    -33.38077625	      7.19363520	      0.07523524
      1.61000000	     23.20801258	     -4.94567804	      4.76961382	     -0.22164273	      0.90177590	     -0.01822441	     -4.38041062	      6.17927356	     12.60819665	     -4.61139608	      3.57364018	    -25.58318860	     27.08755723	    -34.14631805	     -2.10380591	     26.62287011	     -4.45966758	      6.53252226	    -37.31070717	     17.70309268	    -33.10436222	      6.89022020	      0.33563907
      1.61500000	     22.95613249	     -4.79915347	      4.34004688	     -0.21551055	      0.90024315	     -0.01752536	     -4.42679907	      5.81145873	     13.97117941	     -2.59399399	      2.63518523	    -26.27726348	     27.98224556	    -34.33845835	     -1.72832981	     25.94456651	     -4.54381990	      7.20384233	    -36.50917249	     17.72103407	    -32.80293724	      6.55591102	      0.58826795
      1.62000000	     22.70182855	     -4.63158610	      3.91961906	     -0.20934759	      0.89869329	     -0.01683346	     -4.42971828	      5.41573977	     15.15320418	     -0.74338467	      1.81673848	    -26.69647854	     29.01130626	    -34.51573513	     -1.33310802	     25.25448163	     -4.65211319	      7.81667269	    -35.72087277	     17.68767926	    -32.49184251	      6.20906623	      0.80186618
      1.62500000	     22.43090042	     -4.48580904	      3.47629542	     -0.20317765	      0.89710200	     -0.01611327	     -4.33331353	      5.05373267	     16.17874368	      0.84813951	      1.22020745	    -26.68881468	     29.79633572	    -34.70358732	     -0.95240441	     24.62064050	     -4.68948993	      8.36789389	    -35.10058338	     17.66239821	    -32.16038451	      5.87905491	      1.07806523
